<svg xmlns="http://www.w3.org/2000/svg" version="1.1" xmlns:xlink="http://www.w3.org/1999/xlink" xmlns:svgjs="http://svgjs.com/svgjs" width="1440" height="1500" preserveAspectRatio="none" viewBox="0 0 1440 1500"><g mask="url(&quot;#SvgjsMask1030&quot;)" fill="none"><path d="M1395 132L1394 -884" stroke-width="8" stroke="url(#SvgjsLinearGradient1031)" stroke-linecap="round" class="Down"></path><path d="M1213 112L1212 1134" stroke-width="6" stroke="url(#SvgjsLinearGradient1032)" stroke-linecap="round" class="Up"></path><path d="M462 888L461 475" stroke-width="6" stroke="url(#SvgjsLinearGradient1031)" stroke-linecap="round" class="Down"></path><path d="M643 708L642 286" stroke-width="6" stroke="url(#SvgjsLinearGradient1031)" stroke-linecap="round" class="Down"></path><path d="M1183 45L1182 -549" stroke-width="10" stroke="url(#SvgjsLinearGradient1031)" stroke-linecap="round" class="Down"></path><path d="M288 744L287 1830" stroke-width="6" stroke="url(#SvgjsLinearGradient1032)" stroke-linecap="round" class="Up"></path><path d="M567 934L566 1671" stroke-width="6" stroke="url(#SvgjsLinearGradient1031)" stroke-linecap="round" class="Down"></path><path d="M826 311L825 1324" stroke-width="10" stroke="url(#SvgjsLinearGradient1031)" stroke-linecap="round" class="Down"></path><path d="M1019 369L1018 -746" stroke-width="10" stroke="url(#SvgjsLinearGradient1032)" stroke-linecap="round" class="Up"></path><path d="M338 1170L337 368" stroke-width="8" stroke="url(#SvgjsLinearGradient1031)" stroke-linecap="round" class="Down"></path><path d="M606 817L605 1747" stroke-width="8" stroke="url(#SvgjsLinearGradient1032)" stroke-linecap="round" class="Up"></path><path d="M329 281L328 803" stroke-width="6" stroke="url(#SvgjsLinearGradient1031)" stroke-linecap="round" class="Down"></path><path d="M215 741L214 -199" stroke-width="6" stroke="url(#SvgjsLinearGradient1032)" stroke-linecap="round" class="Up"></path><path d="M887 411L886 993" stroke-width="8" stroke="url(#SvgjsLinearGradient1031)" stroke-linecap="round" class="Down"></path><path d="M69 533L68 1405" stroke-width="10" stroke="url(#SvgjsLinearGradient1031)" stroke-linecap="round" class="Down"></path><path d="M203 493L202 1270" stroke-width="10" stroke="url(#SvgjsLinearGradient1031)" stroke-linecap="round" class="Down"></path><path d="M369 1239L368 2171" stroke-width="10" stroke="url(#SvgjsLinearGradient1031)" stroke-linecap="round" class="Down"></path><path d="M619 324L618 -261" stroke-width="10" stroke="url(#SvgjsLinearGradient1031)" stroke-linecap="round" class="Down"></path><path d="M223 495L222 -189" stroke-width="10" stroke="url(#SvgjsLinearGradient1032)" stroke-linecap="round" class="Up"></path><path d="M1122 934L1121 1461" stroke-width="10" stroke="url(#SvgjsLinearGradient1032)" stroke-linecap="round" class="Up"></path><path d="M710 891L709 -66" stroke-width="8" stroke="url(#SvgjsLinearGradient1032)" stroke-linecap="round" class="Up"></path><path d="M957 468L956 -457" stroke-width="6" stroke="url(#SvgjsLinearGradient1032)" stroke-linecap="round" class="Up"></path><path d="M522 1008L521 1951" stroke-width="10" stroke="url(#SvgjsLinearGradient1032)" stroke-linecap="round" class="Up"></path><path d="M804 69L803 1018" stroke-width="8" stroke="url(#SvgjsLinearGradient1031)" stroke-linecap="round" class="Down"></path><path d="M651 1391L650 753" stroke-width="8" stroke="url(#SvgjsLinearGradient1032)" stroke-linecap="round" class="Up"></path><path d="M439 1328L438 622" stroke-width="10" stroke="url(#SvgjsLinearGradient1032)" stroke-linecap="round" class="Up"></path><path d="M495 1360L494 1835" stroke-width="6" stroke="url(#SvgjsLinearGradient1032)" stroke-linecap="round" class="Up"></path><path d="M1249 892L1248 241" stroke-width="8" stroke="url(#SvgjsLinearGradient1032)" stroke-linecap="round" class="Up"></path><path d="M1289 695L1288 -8" stroke-width="6" stroke="url(#SvgjsLinearGradient1031)" stroke-linecap="round" class="Down"></path><path d="M866 314L865 1206" stroke-width="6" stroke="url(#SvgjsLinearGradient1031)" stroke-linecap="round" class="Down"></path><path d="M1070 702L1069 203" stroke-width="8" stroke="url(#SvgjsLinearGradient1032)" stroke-linecap="round" class="Up"></path><path d="M747 231L746 -620" stroke-width="8" stroke="url(#SvgjsLinearGradient1032)" stroke-linecap="round" class="Up"></path><path d="M946 187L945 -266" stroke-width="10" stroke="url(#SvgjsLinearGradient1032)" stroke-linecap="round" class="Up"></path><path d="M219 1206L218 456" stroke-width="8" stroke="url(#SvgjsLinearGradient1032)" stroke-linecap="round" class="Up"></path><path d="M1410 1305L1409 2202" stroke-width="10" stroke="url(#SvgjsLinearGradient1032)" stroke-linecap="round" class="Up"></path><path d="M1099 680L1098 303" stroke-width="8" stroke="url(#SvgjsLinearGradient1031)" stroke-linecap="round" class="Down"></path></g><defs><mask id="SvgjsMask1030"><rect width="1440" height="1500" fill="#ffffff"></rect></mask><linearGradient x1="0%" y1="0%" x2="0%" y2="100%" id="SvgjsLinearGradient1031"><stop stop-color="rgba(118, 124, 231, 0)" offset="0"></stop><stop stop-color="rgba(118, 124, 231, 1)" offset="1"></stop></linearGradient><linearGradient x1="0%" y1="100%" x2="0%" y2="0%" id="SvgjsLinearGradient1032"><stop stop-color="rgba(118, 124, 231, 0)" offset="0"></stop><stop stop-color="rgba(118, 124, 231, 1)" offset="1"></stop></linearGradient></defs></svg>